<svg xmlns="http://www.w3.org/2000/svg" xmlns:xlink="http://www.w3.org/1999/xlink" width="141.695" height="71.362" viewBox="0 0 141.695 71.362">
  <defs>
    <style>
      .cls-1 {
        fill: url(#linear-gradient);
      }

      .cls-2 {
        fill: #8dbfff;
      }

      .cls-3 {
        fill: url(#linear-gradient-2);
      }

      .cls-4 {
        fill: url(#linear-gradient-3);
      }

      .cls-5 {
        fill: url(#linear-gradient-4);
      }

      .cls-6 {
        fill: url(#linear-gradient-5);
      }

      .cls-7 {
        fill: url(#linear-gradient-6);
      }
    </style>
    <linearGradient id="linear-gradient" x1="0.5" x2="0.5" y2="1" gradientUnits="objectBoundingBox">
      <stop offset="0" stop-color="#d1e3ff" stop-opacity="0.161"/>
      <stop offset="1" stop-color="#0a1034" stop-opacity="0"/>
    </linearGradient>
    <linearGradient id="linear-gradient-2" x1="1" y1="0.157" x2="0.58" y2="0.461" gradientUnits="objectBoundingBox">
      <stop offset="0" stop-color="#add4ff"/>
      <stop offset="1" stop-color="#8dbfff"/>
    </linearGradient>
    <linearGradient id="linear-gradient-3" x1="1" y1="0.054" x2="0" y2="0.941" gradientUnits="objectBoundingBox">
      <stop offset="0" stop-color="#daeaff"/>
      <stop offset="1" stop-color="#accfff"/>
    </linearGradient>
    <linearGradient id="linear-gradient-4" x1="1" y1="0.246" x2="0" y2="0.782" gradientUnits="objectBoundingBox">
      <stop offset="0" stop-color="#bfd9ff"/>
      <stop offset="1" stop-color="#ecf4ff"/>
    </linearGradient>
    <linearGradient id="linear-gradient-5" x1="0.915" y1="0.392" x2="0.33" y2="0.742" gradientUnits="objectBoundingBox">
      <stop offset="0" stop-color="#fafbff"/>
      <stop offset="1" stop-color="#bad7ff"/>
    </linearGradient>
    <linearGradient id="linear-gradient-6" x1="0.5" x2="0.593" y2="0.913" gradientUnits="objectBoundingBox">
      <stop offset="0" stop-color="#f1f7ff"/>
      <stop offset="1" stop-color="#bed8ff"/>
    </linearGradient>
  </defs>
  <g id="组_11845" data-name="组 11845" transform="translate(0 0)">
    <path id="减去_49" data-name="减去 49" class="cls-1" d="M141.695,25.286H0c1.433-3.533,4.3-6.9,8.532-10.009A62.5,62.5,0,0,1,24.288,7.258,117.516,117.516,0,0,1,45.612,1.932a165.806,165.806,0,0,1,50.471,0,117.516,117.516,0,0,1,21.324,5.326,62.5,62.5,0,0,1,15.756,8.019c4.228,3.109,7.1,6.476,8.532,10.008Z" transform="translate(0 46.076)"/>
    <g id="组_11844" data-name="组 11844" transform="translate(23.173)">
      <path id="路径_32" data-name="路径 32" class="cls-2" d="M130.76-1741.84l41.086,9.387v39.906l-41.086-9.376Z" transform="translate(-88.163 1741.886)"/>
      <path id="路径_33" data-name="路径 33" class="cls-3" d="M100.061-1701.97l-30.188,10.386v-40.728l30.188-9.621Z" transform="translate(-57.464 1741.932)"/>
      <path id="路径_31" data-name="路径 31" class="cls-4" d="M182.664-1722.885l-30.5,10.8.071,41.527,30.42-12.374Z" transform="translate(-98.957 1732.329)"/>
      <path id="路径_30" data-name="路径 30" class="cls-5" d="M70.869-1722.453v40.771l40.883,11.33-.071-41.545Z" transform="translate(-58.461 1732.111)"/>
      <path id="路径_34" data-name="路径 34" class="cls-6" d="M57.24-1722.519,44.844-1706l42.217,13.333,11.17-19.243Z" transform="translate(-44.844 1732.144)"/>
      <path id="路径_35" data-name="路径 35" class="cls-7" d="M182.723-1722.873c.1-.05-30.465,10.753-30.465,10.753l11.312,17.533,30.1-13.726S182.624-1722.823,182.723-1722.873Z" transform="translate(-99.002 1732.323)"/>
    </g>
  </g>
</svg>
