<svg xmlns="http://www.w3.org/2000/svg" width="28" height="28" viewBox="0 0 28 28">
  <defs>
    <style>
      .cls-1 {
        fill: #fff;
        stroke: #707070;
        opacity: 0;
      }

      .cls-2 {
        fill: #d0d3d9;
      }

      .cls-3 {
        stroke: none;
      }

      .cls-4 {
        fill: none;
      }
    </style>
  </defs>
  <g id="证件号" transform="translate(-933 -588)">
    <g id="矩形_4364" data-name="矩形 4364" class="cls-1" transform="translate(933 588)">
      <rect class="cls-3" width="28" height="28"/>
      <rect class="cls-4" x="0.5" y="0.5" width="27" height="27"/>
    </g>
    <g id="组_11959" data-name="组 11959" transform="translate(851.274 556.867)">
      <path id="路径_787" data-name="路径 787" class="cls-2" d="M103.4,34.133H86.9A1.576,1.576,0,0,0,85.333,35.7V54.562A1.576,1.576,0,0,0,86.9,56.133h16.5a1.576,1.576,0,0,0,1.571-1.571V35.7A1.576,1.576,0,0,0,103.4,34.133Zm-8.25,3.735a4.714,4.714,0,1,1-4.714,4.714,4.714,4.714,0,0,1,4.714-4.714Zm5.5,15.122h-11a.786.786,0,0,1,0-1.571h11a.786.786,0,1,1,0,1.571Z"/>
      <path id="路径_788" data-name="路径 788" class="cls-2" d="M376.828,258.045l-.3,1.835a.358.358,0,0,0,.525.371l1.551-.853,1.552.863a.379.379,0,0,0,.166.04h0a.357.357,0,0,0,.339-.47l-.286-1.78,1.268-1.3a.357.357,0,0,0-.2-.6l-1.735-.267-.776-1.663a.358.358,0,0,0-.648,0l-.782,1.658-1.738.262a.357.357,0,0,0-.2.6Z" transform="translate(-283.45 -214.822)"/>
    </g>
  </g>
</svg>
