<svg xmlns="http://www.w3.org/2000/svg" width="28" height="28" viewBox="0 0 28 28">
  <defs>
    <style>
      .cls-1 {
        fill: #fff;
        stroke: #707070;
        opacity: 0;
      }

      .cls-2 {
        fill: #d0d3d9;
      }

      .cls-3 {
        stroke: none;
      }

      .cls-4 {
        fill: none;
      }
    </style>
  </defs>
  <g id="房源定金" transform="translate(-134 -959)">
    <g id="矩形_4358" data-name="矩形 4358" class="cls-1" transform="translate(134 959)">
      <rect class="cls-3" width="28" height="28"/>
      <rect class="cls-4" x="0.5" y="0.5" width="27" height="27"/>
    </g>
    <path id="路径_2468" data-name="路径 2468" class="cls-2" d="M57.259,10.848a.443.443,0,0,1-.136-.69,3.843,3.843,0,0,0,.364-.552c.864-1.519.818-3.268-.182-3.82a1.321,1.321,0,0,0-.727-.184,1.59,1.59,0,0,0-.773.184.271.271,0,0,1-.182.046.412.412,0,0,1-.364-.184,3.207,3.207,0,0,0-5.273,0,.412.412,0,0,1-.364.184.271.271,0,0,1-.182-.046,1.135,1.135,0,0,0-.727-.23,1.321,1.321,0,0,0-.727.184c-.955.552-1.045,2.3-.182,3.82a5.753,5.753,0,0,0,.364.552.443.443,0,0,1-.136.69,10.223,10.223,0,0,0-5.364,9.021,9.409,9.409,0,0,0,1.682,5.339,2.7,2.7,0,0,0,2.182,1.1H58.8a2.7,2.7,0,0,0,2.182-1.1,9.409,9.409,0,0,0,1.682-5.339,10.052,10.052,0,0,0-5.409-8.975Zm-4.591,12.2a4.588,4.588,0,0,0-4.545-4.6,4.588,4.588,0,0,0,4.545-4.6,4.588,4.588,0,0,0,4.545,4.6A4.588,4.588,0,0,0,52.668,23.045Z" transform="translate(94.332 957.724)"/>
  </g>
</svg>
