<svg xmlns="http://www.w3.org/2000/svg" width="28" height="28" viewBox="0 0 28 28">
  <defs>
    <style>
      .cls-1 {
        fill: #fff;
        stroke: #707070;
        opacity: 0;
      }

      .cls-2 {
        fill: #d2d5dc;
      }

      .cls-3 {
        stroke: none;
      }

      .cls-4 {
        fill: none;
      }
    </style>
  </defs>
  <g id="选定房源" transform="translate(-134 -759)">
    <g id="矩形_4355" data-name="矩形 4355" class="cls-1" transform="translate(134 759)">
      <rect class="cls-3" width="28" height="28"/>
      <rect class="cls-4" x="0.5" y="0.5" width="27" height="27"/>
    </g>
    <path id="路径_2466" data-name="路径 2466" class="cls-2" d="M112.784,107.451a.984.984,0,0,0-.182-.356l-3.575-3.331v-3.046a.59.59,0,0,0-.606-.569h-1.015a.59.59,0,0,0-.606.569v.569s0,.085-.03.114c-.015.028-.091.043-.091.043s-.106.028-.151-.014c-.03-.028-3.393-3.16-4.272-4a.683.683,0,0,0-.5-.2.886.886,0,0,0-.439.171l-10.3,9.694c-.015.014-.03.028-.03.043a.977.977,0,0,0-.076,1.025l.076.157a1.319,1.319,0,0,0,.682.655.272.272,0,0,0,.106.014h2.06V116.6a.7.7,0,0,0,.667.626h14.574a.651.651,0,0,0,.667-.626v-7.616h2.075a1.18,1.18,0,0,0,.818-.555A1.763,1.763,0,0,0,112.784,107.451Zm-8.983,7.7H99.665a.111.111,0,0,1-.106-.085v-4.185a.543.543,0,0,1,.561-.527h3.227a.543.543,0,0,1,.561.527v4.171A.093.093,0,0,1,103.8,115.152Z" transform="translate(45.198 664.77)"/>
  </g>
</svg>
