<svg xmlns="http://www.w3.org/2000/svg" width="282" height="282" viewBox="0 0 282 282">
  <defs>
    <style>
      .cls-1, .cls-6 {
        fill: #fff;
      }

      .cls-1 {
        stroke: #707070;
      }

      .cls-2 {
        fill: #f4cfc0;
      }

      .cls-3 {
        fill: #e3a99d;
      }

      .cls-4 {
        fill: #f6ccb8;
      }

      .cls-5 {
        fill: #4e3c31;
      }

      .cls-7 {
        fill: #eaeced;
      }

      .cls-8 {
        fill: #e3e6e9;
      }

      .cls-9 {
        stroke: none;
      }

      .cls-10 {
        fill: none;
      }
    </style>
  </defs>
  <g id="头像" transform="translate(-552.846 -383)">
    <g id="矩形_4078" data-name="矩形 4078" class="cls-1" transform="translate(552.846 383)">
      <rect class="cls-9" width="282" height="282" rx="4"/>
      <rect class="cls-10" x="0.5" y="0.5" width="281" height="281" rx="3.5"/>
    </g>
    <g id="默认头像" transform="translate(598.88 443.811)">
      <path id="路径_751" data-name="路径 751" class="cls-2" d="M665.589-702.965v31.207l-25.156,33.621,94.843-1.069-28.558-32.552v-31.207Z" transform="translate(-585.803 825.068)"/>
      <path id="交叉_1" data-name="交叉 1" class="cls-3" d="M0,21.03V0H41.129V29.737Z" transform="translate(79.785 123.305)"/>
      <path id="联合_1" data-name="联合 1" class="cls-4" d="M7.786,72.152A5.752,5.752,0,0,1,2.853,70.3C-.169,66.838-.44,58.76.438,52.779c.67-4.561,4.393-3.914,6.124-3.35C8.995,14.055,31.66.6,31.66.6S85.478-3.477,91.97,9.661c4.515,9.139,6.1,23.285,5.528,39.931,1.405-.544,5.845-1.835,6.583,3.187.878,5.981.607,14.06-2.416,17.522a6.063,6.063,0,0,1-6.016,1.693c-.028.222-.056.446-.084.668-3.335,26.38-23.885,40.068-37.994,42.415a26.561,26.561,0,0,1-4.332.332C38.821,115.407,13.977,105.7,7.786,72.152Z" transform="translate(47.293 30.462)"/>
      <path id="路径_748" data-name="路径 748" class="cls-5" d="M714.8-811.363s10.23,8.454,16.378,7.916,8.242-1.123,8.745,3.085.514,10.239-1.034,14.285-3.257,4.674-2.779,7.362,2.625,15.765.855,25.126a113.04,113.04,0,0,1-5.433,18.461s1.33-14.464,0-22.5a40.74,40.74,0,0,0-4.651-13.437,34.9,34.9,0,0,1-21.955,7.112c-13.146-.372-28.815-3.366-35.571-8.541a79.319,79.319,0,0,0-11.737-7.632S646.2-769.675,643.959-755.55a221.4,221.4,0,0,0-2.605,22.035s-14.567-35.063-5.178-56.122,25.2-21.726,25.2-21.726,20.42-14.613,35.078-8.7S714.8-811.363,714.8-811.363Z" transform="translate(-587.44 821.471)"/>
      <path id="路径_752" data-name="路径 752" class="cls-6" d="M655.981-672.823s1.788,17.177,17.8,23.2,27.065.128,33.614-5.532S720.274-671.2,720.274-671.2s10.654,23.823,10.732,24.578-3.455,33.148-4.187,36.52-62.328.936-62.328.936H650.7Z" transform="translate(-589.328 829.503)"/>
      <g id="组_11832" data-name="组 11832" transform="translate(108.651 152.741)">
        <path id="路径_753" data-name="路径 753" class="cls-7" d="M601.876-674.823s26.023,10.215,37.717,10.7,33.2,8.255,35.865,22.313,4.874,32.544,4.874,32.544H589.65Z" transform="translate(-587.952 676.611)"/>
        <path id="路径_754" data-name="路径 754" class="cls-8" d="M655.323-676.225l3.465-.26,17.037,8.911L674.155-643h-4.833l-1.649,7.837,6.482,6.482-11.423,19.664H643.174L656.413-671.9Z" transform="translate(-643.174 676.485)"/>
      </g>
      <g id="组_11833" data-name="组 11833" transform="translate(0 152.741)">
        <path id="路径_753-2" data-name="路径 753" class="cls-7" d="M668.106-674.823s-26.023,10.215-37.717,10.7-33.2,8.255-35.865,22.313-4.874,32.544-4.874,32.544h90.682Z" transform="translate(-589.65 676.611)"/>
        <path id="路径_754-2" data-name="路径 754" class="cls-8" d="M663.295-676.485H660.21l-17.037,8.911L644.843-643h4.833l1.649,7.837-6.482,6.482,11.423,19.664h19.558l-12.931-63Z" transform="translate(-583.444 676.485)"/>
      </g>
    </g>
  </g>
</svg>
